<svg aria-hidden="true" style="position:absolute;width:0;height:0;overflow:hidden" xmlns="http://www.w3.org/2000/svg">
  <defs>
    <symbol id="icon-ac" viewBox="0 0 40 32">
      <path d="M18.01.102c-3.396.596-5.97 3.138-6.646 6.562-.062.31-.098.72-.082.912.07.844.976 1.332 1.768.95.42-.204.594-.514.792-1.402.286-1.292.73-2.148 1.534-2.964 1.074-1.092 2.504-1.666 4.09-1.648h.054c.87 0 1.69.216 2.408.598l-.028-.013c2.144 1.044 3.408 3.46 3.008 5.752-.382 2.192-1.806 3.772-4.022 4.468l-.586.184-19.476.066-.27.18a1.228 1.228 0 0 0 .125 2.11l.007.003.296.144 19.452-.038.782-.212c3.354-.908 5.716-3.652 6.056-7.038a7.726 7.726 0 0 0-.789-4.197l.02.045C25.398 2.328 23.358.697 20.908.17l-.053-.01c-.69-.15-2.152-.18-2.846-.058zm14.956 11.012c-2.598.352-4.712 2.234-5.304 4.72-.176.742-.2 1.654-.05 1.932a1.286 1.286 0 0 0 1.712.556l-.007.003c.44-.214.62-.534.694-1.24.11-1.034.374-1.652.992-2.312.692-.74 1.476-1.124 2.464-1.21 1.742-.15 3.46 1.06 3.896 2.746.492 1.908-.598 3.808-2.562 4.466-.352.118-1.062.126-17.166.158-15.764.03-16.814.04-17.012.148-.804.44-.82 1.586-.03 2.122l.242.162 12.732.034c9.088.024 12.792.056 12.934.108.856.316 1.546.892 1.888 1.572.938 1.87-.222 4.08-2.316 4.404-1.642.254-3.178-.826-3.558-2.504-.122-.54-.36-.88-.74-1.052-.816-.372-1.774.208-1.774 1.074 0 .682.41 1.802.948 2.588.72 1.052 1.96 1.902 3.286 2.252.71.188 2.154.172 2.866-.032 3.436-.98 5.126-4.672 3.564-7.788l-.306-.612 2.17-.026c2.086-.026 2.198-.034 2.818-.2a6.294 6.294 0 0 0 4.421-4.254l.011-.044c.162-.532.18-.684.18-1.652 0-.972-.018-1.12-.184-1.668-.687-2.279-2.578-3.986-4.917-4.395l-.037-.005a7.266 7.266 0 0 0-1.134-.087 7.77 7.77 0 0 0-.751.037l.031-.003z"/>
    </symbol>
    <symbol id="icon-star_filled" viewBox="0 0 32 32">
      <path stroke-width="2.4" d="M12.4 9.394 16 2.572l3.6 6.822a2.2 2.2 0 0 0 1.571 1.141l7.601 1.315-5.376 5.532a2.2 2.2 0 0 0-.6 1.846l1.098 7.635-6.922-3.404a2.199 2.199 0 0 0-1.941 0l-6.922 3.404 1.098-7.635a2.2 2.2 0 0 0-.6-1.846L3.231 11.85l7.601-1.315a2.202 2.202 0 0 0 1.571-1.141z"/>
    </symbol>
    <symbol id="icon-star-empty" viewBox="0 0 32 32">
      <path stroke-width="2.4" d="M12.4 9.394 16 2.572l3.6 6.822a2.2 2.2 0 0 0 1.571 1.141l7.601 1.315-5.376 5.532a2.2 2.2 0 0 0-.6 1.846l1.098 7.635-6.922-3.404a2.199 2.199 0 0 0-1.941 0l-6.922 3.404 1.098-7.635a2.2 2.2 0 0 0-.6-1.846L3.231 11.85l7.601-1.315a2.202 2.202 0 0 0 1.571-1.141zm16.635 2.185zM7.767 27.031z"/>
    </symbol>
    <symbol id="icon-microwave" viewBox="0 0 32 32">
      <path d="M1.878 4.642c-0.651 0.094-1.318 0.611-1.626 1.261l-0.173 0.365v19.466l0.173 0.365c0.315 0.666 0.973 1.163 1.674 1.264 0.454 0.066 27.693 0.066 28.147 0 0.744-0.129 1.354-0.604 1.668-1.25l0.006-0.014 0.173-0.365v-19.466l-0.173-0.365c-0.319-0.66-0.93-1.135-1.66-1.262l-0.014-0.002c-0.413-0.061-27.786-0.058-28.195 0.003zM29.733 16v9.147h-27.466l-0.014-9.094c-0.008-5.002-0.002-9.123 0.011-9.16 0.021-0.053 2.798-0.064 13.747-0.053l13.722 0.013v9.147zM6.357 9.23c-0.837 0.166-1.573 0.955-1.718 1.842-0.069 0.419-0.069 9.437 0 9.856 0.15 0.915 0.888 1.683 1.773 1.846 0.19 0.035 2.613 0.050 6.928 0.040l6.634-0.014 0.362-0.171c0.728-0.346 1.224-1.005 1.322-1.757 0.061-0.477 0.061-9.267 0-9.744-0.118-0.786-0.621-1.433-1.307-1.751l-0.014-0.006-0.362-0.171-6.693-0.008c-3.682-0.005-6.797 0.013-6.923 0.038zM24.987 10.325c-0.038 0.011-0.115 0.029-0.193 0.045l-0.036 0.006c-0.171 0.037-0.547 0.392-0.634 0.595-0.168 0.403-0.050 0.994 0.258 1.28 0.253 0.237 0.469 0.282 1.325 0.282 0.877 0 1.072-0.045 1.35-0.309 0.232-0.221 0.32-0.432 0.325-0.784 0.001-0.014 0.001-0.029 0.001-0.045 0-0.395-0.215-0.739-0.535-0.921l-0.005-0.003c-0.234-0.136-0.29-0.146-0.998-0.158-0.090-0.003-0.196-0.005-0.302-0.005-0.195 0-0.389 0.007-0.581 0.020l0.026-0.001zM19.467 16v4.587h-12.64v-9.174h12.64v4.587zM24.646 15.018c-0.185 0.087-0.335 0.221-0.441 0.386l-0.003 0.004c-0.142 0.222-0.155 0.28-0.139 0.624 0.022 0.496 0.182 0.752 0.597 0.954 0.286 0.141 0.31 0.144 1.146 0.126 0.85-0.019 0.851-0.019 1.083-0.181 0.302-0.204 0.498-0.545 0.498-0.931s-0.196-0.727-0.494-0.929l-0.004-0.003-0.232-0.162-0.862-0.018c-0.846-0.016-0.867-0.013-1.149 0.128z"></path>
    </symbol>
    <symbol id="icon-water" viewBox="0 0 32 32">
      <path d="M15.579 2.35c-0.558 0.11-0.786 0.304-1.79 1.517-2.435 2.942-4.506 6.051-5.914 8.88-1.043 2.096-1.59 3.658-1.936 5.52-0.078 0.429-0.098 0.792-0.096 1.866 0.002 1.469 0.072 2.034 0.394 3.182 0.986 3.509 3.587 5.896 7.222 6.63 0.93 0.187 1.483 0.24 2.541 0.24 0.514 0 1.149-0.024 1.413-0.054 4.965-0.565 8.182-3.81 8.726-8.8 0.078-0.723 0.034-2.432-0.082-3.064-0.33-1.819-0.896-3.435-1.933-5.52-1.408-2.829-3.478-5.938-5.914-8.88-1.026-1.238-1.226-1.405-1.834-1.52-0.118-0.029-0.253-0.045-0.392-0.045-0.144 0-0.284 0.018-0.418 0.051l0.012-0.002zM17.616 6.973c2.59 3.39 4.605 6.87 5.515 9.534 0.413 1.205 0.595 2.133 0.64 3.234 0.078 1.973-0.408 3.819-1.355 5.152-0.441 0.573-0.937 1.070-1.49 1.498l-0.019 0.014c-1.328 0.938-2.909 1.382-4.907 1.382-2.44 0-4.296-0.67-5.683-2.053-1.168-1.163-1.794-2.53-2.030-4.427-0.039-0.355-0.062-0.766-0.062-1.182 0-0.59 0.045-1.17 0.132-1.736l-0.008 0.063c0.387-2.189 1.632-4.941 3.662-8.101 1.027-1.598 2.4-3.482 3.493-4.792l0.501-0.6 0.494 0.6c0.272 0.33 0.774 0.965 1.117 1.413zM20.968 19.448c-0.437 0.232-0.597 0.491-0.661 1.069-0.086 0.779-0.146 1.014-0.374 1.472-0.163 0.326-0.371 0.603-0.621 0.837l-0.002 0.001c-0.627 0.622-1.182 0.874-2.131 0.963-0.674 0.064-0.944 0.194-1.181 0.568-0.124 0.18-0.198 0.402-0.198 0.642 0 0.295 0.112 0.564 0.297 0.766l-0.001-0.001c0.267 0.31 0.533 0.419 1.030 0.421 1.386 0.003 2.848-0.621 3.886-1.658 1.036-1.024 1.677-2.444 1.677-4.014 0-0.067-0.001-0.134-0.003-0.2l0 0.010c-0.085-0.552-0.544-0.974-1.106-1.002l-0.003-0c-0.043-0.008-0.093-0.012-0.144-0.012-0.173 0-0.334 0.052-0.469 0.141l0.003-0.002z"></path>
    </symbol>
    <symbol id="icon-gas" viewBox="0 0 32 32">
      <path d="M25.072 13.991c-.368-.453-.816-.846-1.232-1.239-1.072-.907-2.288-1.556-3.311-2.508-2.384-2.206-2.912-5.848-1.392-8.644-1.52.348-2.848 1.133-3.983 1.995-4.143 3.143-5.775 8.689-3.823 13.449.064.151.128.302.128.499 0 .332-.24.635-.56.756-.368.151-.752.06-1.056-.181a.901.901 0 0 1-.224-.257c-1.808-2.161-2.096-5.259-.88-7.737-2.672 2.055-4.127 5.531-3.919 8.81.096.756.192 1.511.464 2.267.224.907.656 1.813 1.136 2.614 1.728 2.614 4.719 4.488 7.935 4.866 3.423.408 7.087-.181 9.71-2.418 2.927-2.508 3.951-6.528 2.448-9.974l-.208-.393c-.336-.695-1.232-1.904-1.232-1.904zm-5.055 9.521c-.448.363-1.184.756-1.76.907-1.792.604-3.583-.242-4.639-1.239 1.904-.423 3.039-1.753 3.375-3.098.272-1.209-.24-2.206-.448-3.37-.192-1.118-.16-2.07.272-3.113.304.574.624 1.148 1.008 1.602 1.232 1.511 3.167 2.176 3.583 4.231.064.212.096.423.096.65.048 1.239-.528 2.599-1.488 3.43z"/>
    </symbol>
    <symbol id="icon-fridge" viewBox="0 0 32 32">
      <path d="M7.973 2.027c-1.054 0.211-1.934 1.024-2.28 2.106l-0.12 0.374v21.386l0.118 0.376c0.218 0.693 0.768 1.382 1.39 1.747 0.275 0.16 0.307 0.198 0.342 0.405 0.101 0.589 0.558 1.182 1.109 1.442 0.285 0.133 0.331 0.138 1.507 0.155 1.376 0.019 1.592-0.018 2.038-0.333 0.346-0.246 0.589-0.562 0.728-0.946l0.115-0.312h6.17l0.035 0.146c0.122 0.504 0.584 1.053 1.086 1.29 0.291 0.136 0.304 0.138 1.627 0.138s1.336-0.002 1.627-0.138c0.558-0.262 0.97-0.784 1.094-1.381 0.058-0.282 0.072-0.299 0.376-0.477 0.638-0.371 1.162-1.043 1.39-1.792 0.094-0.306 0.099-0.784 0.099-11.013v-10.693l-0.118-0.374c-0.331-1.043-1.24-1.894-2.245-2.101-0.334-0.069-15.746-0.074-16.091-0.005zM23.971 4.234c0.125 0.104 0.226 0.232 0.299 0.376l0.003 0.007c0.096 0.218 0.099 0.398 0.086 3.846l-0.013 3.618h-16.694v-7.368l0.147-0.221c0.093-0.132 0.208-0.242 0.342-0.325l0.005-0.003c0.197-0.104 0.309-0.106 7.91-0.094l7.71 0.011 0.203 0.154zM9.893 5.594c-0.244 0.107-0.433 0.303-0.527 0.545l-0.002 0.007c-0.070 0.168-0.083 0.534-0.083 2.422 0 2.166 0.003 2.232 0.114 2.461 0.163 0.325 0.494 0.545 0.876 0.545 0.013 0 0.027-0 0.040-0.001l-0.002 0c0.008 0 0.018 0 0.027 0 0.156 0 0.305-0.028 0.442-0.080l-0.009 0.003c0.246-0.151 0.434-0.377 0.533-0.646l0.003-0.009c0.074-0.27 0.075-4.344 0-4.613-0.162-0.584-0.85-0.893-1.411-0.635zM24.347 19.923v5.765l-0.144 0.216c-0.097 0.138-0.223 0.25-0.37 0.327l-0.006 0.003-0.234 0.114h-7.586c-6.253 0-7.614-0.013-7.757-0.072-0.271-0.128-0.475-0.36-0.564-0.642l-0.002-0.008c-0.064-0.258-0.086-11.394-0.022-11.458 0.019-0.019 3.782-0.029 8.36-0.021l8.325 0.013v5.763zM10.056 14.406c-0.299 0.076-0.54 0.277-0.671 0.541l-0.003 0.006c-0.093 0.203-0.101 0.386-0.101 2.459 0 2.066 0.008 2.258 0.099 2.454 0.164 0.36 0.521 0.605 0.934 0.605 0.357 0 0.672-0.183 0.855-0.461l0.002-0.004 0.16-0.23v-4.658l-0.141-0.24c-0.184-0.304-0.513-0.504-0.888-0.504-0.088 0-0.173 0.011-0.255 0.032l0.007-0.002z"></path>
    </symbol>
    <symbol id="icon-toilet" viewBox="0 0 32 32">
      <path d="M24 4c1.939 0 3.269 1.647 4.04 3.313.761 1.653 1.224 3.811 1.287 6.145l.007.541v12.667a1.343 1.343 0 0 1-.409.962 1.352 1.352 0 0 1-.978.371l-.165-.019-3.781-.629-3.781.629a1.33 1.33 0 0 1-.483-.008l-.157-.041-3.579-1.193-3.579 1.193a1.327 1.327 0 0 1-1.135-.138 1.323 1.323 0 0 1-.61-.968l-.009-.159v-3.903c-.708.733-1.595 1.236-2.667 1.236-1.939 0-3.269-1.647-4.04-3.313-.819-1.78-1.293-4.145-1.293-6.687s.473-4.907 1.293-6.687c.735-1.592 1.981-3.164 3.78-3.303l.26-.011h16zm0 2.667H11.709c.12.213.229.429.329.647.821 1.78 1.295 4.145 1.295 6.687v10.817l2.245-.749c.274-.091.569-.091.843 0l3.687 1.229 3.673-.613c.144-.024.293-.024.437 0l2.448.409V14.001c0-2.245-.423-4.213-1.049-5.569C24.94 6.961 24.27 6.668 24 6.668zm-16 0c-.271 0-.94.293-1.617 1.764C5.756 9.787 5.334 11.755 5.334 14s.423 4.213 1.049 5.569C7.06 21.04 7.73 21.333 8 21.333s.94-.293 1.617-1.764c.627-1.356 1.049-3.324 1.049-5.569s-.423-4.213-1.049-5.569C8.94 6.96 8.27 6.667 8 6.667zm0 4.666c.736 0 1.333 1.193 1.333 2.667S8.736 16.667 8 16.667 6.667 15.474 6.667 14 7.264 11.333 8 11.333z"/>
    </symbol>
    <symbol id="icon-hob" viewBox="0 0 32 32">
      <path d="M3.226 5.589c-0.667 0.234-1.199 0.711-1.5 1.322l-0.007 0.015-0.198 0.402v18.677l0.2 0.405c0.264 0.534 0.67 0.941 1.203 1.203l0.405 0.2h25.344l0.405-0.2c0.533-0.262 0.939-0.669 1.203-1.203l0.2-0.405v-18.677l-0.2-0.405c-0.26-0.527-0.677-0.943-1.188-1.196l-0.015-0.007-0.405-0.2-12.589-0.011c-11.837-0.011-12.606-0.006-12.858 0.080zM10.8 16.667v8.8l-3.395 0.013c-3.035 0.013-3.405 0.005-3.48-0.070-0.077-0.075-0.085-0.925-0.085-8.742 0-7.819 0.008-8.667 0.085-8.744 0.075-0.075 0.445-0.083 3.48-0.070l3.395 0.014v8.8zM28.077 7.923c0.075 0.077 0.083 0.942 0.083 8.744 0 7.808-0.008 8.667-0.083 8.742-0.077 0.075-0.81 0.083-7.48 0.070l-7.397-0.013-0.014-8.747c-0.006-4.811-0.002-8.776 0.013-8.813 0.019-0.053 1.55-0.067 7.41-0.067 6.642 0 7.394 0.008 7.469 0.083zM24.12 9.603c-0.148 0.081-0.273 0.185-0.376 0.307l-0.002 0.002c-0.173 0.221-7.861 11.117-8.082 11.453-0.119 0.177-0.19 0.395-0.19 0.63 0 0.328 0.139 0.624 0.36 0.832l0.001 0.001c0.499 0.485 1.165 0.498 1.637 0.035 0.202-0.198 7.938-11.115 8.245-11.637 0.098-0.165 0.126-0.291 0.126-0.558 0-0.012 0.001-0.027 0.001-0.042 0-0.395-0.201-0.743-0.507-0.946l-0.004-0.003c-0.309-0.213-0.869-0.248-1.21-0.074zM6.944 10.19c-0.269 0.083-0.683 0.512-0.755 0.786-0.042 0.157-0.056 0.744-0.045 1.822l0.016 1.592 0.162 0.23c0.088 0.126 0.264 0.302 0.39 0.39 0.206 0.146 0.272 0.162 0.621 0.162s0.416-0.016 0.621-0.162c0.126-0.088 0.302-0.264 0.392-0.39l0.162-0.23v-3.448l-0.162-0.23c-0.251-0.355-0.538-0.53-0.91-0.555-0.037-0.003-0.081-0.004-0.125-0.004-0.13 0-0.256 0.014-0.378 0.040l0.012-0.002zM6.728 16.83c-0.488 0.246-0.73 0.691-0.691 1.275 0.017 0.43 0.251 0.801 0.595 1.010l0.005 0.003c0.235 0.146 0.306 0.162 0.696 0.162 0.392 0 0.462-0.016 0.696-0.162 0.172-0.109 0.313-0.251 0.419-0.417l0.003-0.005c0.146-0.235 0.162-0.306 0.162-0.696s-0.016-0.461-0.162-0.696c-0.237-0.386-0.578-0.578-1.059-0.6-0.326-0.016-0.418 0.002-0.664 0.126zM6.728 20.83c-0.488 0.246-0.73 0.691-0.691 1.275 0.017 0.43 0.251 0.801 0.595 1.010l0.005 0.003c0.235 0.146 0.306 0.162 0.696 0.162 0.392 0 0.462-0.016 0.696-0.162 0.172-0.109 0.313-0.251 0.419-0.417l0.003-0.005c0.146-0.235 0.162-0.306 0.162-0.696s-0.016-0.461-0.162-0.696c-0.237-0.386-0.578-0.578-1.059-0.6-0.326-0.016-0.418 0.002-0.664 0.126z"></path>
    </symbol>
    <symbol id="icon-radio" viewBox="0 0 32 32">
      <path d="M13.947 4.366l-5.76 2.709-0.555 0.064c-1.906 0.214-3.109 0.709-4.101 1.68-1.013 0.994-1.499 2.189-1.754 4.322-0.11 0.93-0.166 8.44-0.074 9.979 0.168 2.792 0.627 4.17 1.782 5.349 1.008 1.027 2.197 1.504 4.402 1.76 0.698 0.082 1.549 0.091 8.112 0.091s7.414-0.010 8.112-0.091c2.205-0.256 3.394-0.733 4.402-1.76 1.011-1.032 1.461-2.174 1.715-4.357 0.080-0.677 0.091-1.392 0.091-5.445 0-5.002-0.018-5.424-0.29-6.758-0.526-2.582-2.021-4.078-4.6-4.603-1.288-0.264-1.677-0.282-7.030-0.314l-5.040-0.032 0.267-0.139c-0.738 0.272 0.424-0.289 1.589-0.842l1.948-0.833c1.983-0.894 3.112-1.445 4.232-2.011l-0.793 0.363c0.477-0.322 0.55-1.086 0.15-1.544-0.157-0.178-0.469-0.301-0.765-0.299-0.261 0.002-0.731 0.213-6.042 2.712zM21.813 9.066c1.768 0.053 2.421 0.11 3.2 0.277 2.019 0.434 2.805 1.405 3.125 3.858 0.045 0.339 0.102 1.603 0.139 3 0.070 2.741-0.002 6.886-0.139 7.933-0.358 2.744-1.278 3.659-4.030 4.006-0.939 0.118-3.674 0.178-8.107 0.178-4.461 0-7.178-0.059-8.107-0.178-2.968-0.378-3.854-1.418-4.106-4.821-0.142-1.946-0.107-8.582 0.054-9.986 0.077-0.678 0.256-1.466 0.43-1.907 0.466-1.17 1.242-1.766 2.715-2.083 0.76-0.163 1.486-0.23 2.96-0.274 1.981-0.056 9.997-0.059 11.866-0.003zM8.453 11.064c-1.099 0.242-2.131 1.152-2.589 2.283-0.067 0.168-0.144 0.306-0.166 0.306-0.080 0-0.048 1.549 0.038 1.915 0.302 1.285 1.469 2.434 2.741 2.702 0.288 0.061 1.634 0.074 7.55 0.077 7.053 0.003 7.208 0.002 7.618-0.104 0.669-0.176 1.243-0.516 1.697-0.974l0-0c0.347-0.346 0.456-0.499 0.678-0.96 0.304-0.629 0.392-0.998 0.392-1.642s-0.088-1.013-0.39-1.638c-0.429-0.89-1.093-1.477-2.126-1.878l-0.349-0.138-7.387-0.010c-5.947-0.008-7.45 0.005-7.707 0.061zM23.427 13.216c0.438 0.216 0.704 0.522 0.845 0.974 0.126 0.408 0.126 0.546 0 0.954-0.129 0.437-0.436 0.786-0.835 0.969l-0.010 0.004-0.358 0.176h-2.029l-0.027-0.67c-0.024-0.603-0.040-0.691-0.16-0.867-0.202-0.273-0.522-0.447-0.883-0.447-0.026 0-0.053 0.001-0.078 0.003l0.003-0c-0.315 0.037-0.583 0.207-0.751 0.452l-0.002 0.004c-0.114 0.165-0.131 0.261-0.154 0.856l-0.027 0.67h-9.973l-0.299-0.139c-0.371-0.173-0.663-0.465-0.831-0.826l-0.004-0.010c-0.427-0.933 0.186-2.075 1.21-2.25 0.134-0.024 3.341-0.038 7.125-0.035l6.882 0.008 0.358 0.176zM9.39 19.686c-0.824 0.138-1.747 0.862-2.134 1.674-0.221 0.466-0.286 0.832-0.258 1.47 0.037 0.853 0.282 1.408 0.885 1.998 1.294 1.267 3.314 1.142 4.494-0.28 0.427-0.514 0.635-1.133 0.635-1.882s-0.211-1.368-0.643-1.891c-0.742-0.899-1.797-1.285-2.979-1.090zM16.88 21.742c-0.334 0.161-0.561 0.497-0.561 0.885 0 0.014 0 0.028 0.001 0.041l-0-0.002c0 0.416 0.187 0.73 0.544 0.912 0.189 0.096 0.371 0.101 3.803 0.101 3.43 0 3.613-0.005 3.802-0.101 0.325-0.159 0.545-0.487 0.545-0.867 0-0.016-0-0.032-0.001-0.048l0 0.002c0.001-0.014 0.001-0.030 0.001-0.046 0-0.38-0.22-0.708-0.539-0.865l-0.006-0.003c-0.189-0.096-0.368-0.101-3.813-0.098-3.195 0.002-3.635 0.011-3.776 0.086zM10.33 21.763c0.359 0.151 0.609 0.498 0.616 0.903v0.001c0 0.282-0.096 0.496-0.314 0.702-0.598 0.565-1.578 0.128-1.578-0.702 0-0.283 0.096-0.496 0.314-0.704 0.166-0.159 0.392-0.257 0.641-0.257 0.115 0 0.225 0.021 0.327 0.059l-0.006-0.002z"></path>
    </symbol>
    <symbol id="icon-cd" viewBox="0 0 32 32">
      <path d="M14.72 2.859c-1.77 0.213-3.034 0.578-4.507 1.298-1.446 0.709-2.344 1.354-3.523 2.533s-1.824 2.077-2.533 3.523c-0.385 0.741-0.713 1.602-0.939 2.504l-0.018 0.083c-0.296 1.189-0.347 1.659-0.347 3.2s0.051 2.011 0.347 3.2c0.23 0.928 0.496 1.645 0.957 2.587 0.709 1.446 1.354 2.344 2.533 3.523s2.077 1.824 3.523 2.533c0.741 0.385 1.602 0.713 2.504 0.939l0.083 0.018c1.189 0.296 1.659 0.347 3.2 0.347s2.011-0.051 3.2-0.347c1.868-0.488 3.499-1.303 4.913-2.387l-0.033 0.024c0.55-0.414 1.942-1.806 2.357-2.357 1.306-1.697 2.229-3.756 2.602-6.001l0.011-0.079c0.077-0.464 0.098-0.883 0.098-2 0-1.541-0.051-2.011-0.347-3.2-0.488-1.868-1.303-3.499-2.387-4.913l0.024 0.033c-0.414-0.55-1.806-1.942-2.357-2.357-1.464-1.104-3.141-1.923-4.8-2.346-1.094-0.28-1.621-0.342-3.040-0.362-0.209-0.006-0.455-0.009-0.702-0.009-0.288 0-0.574 0.004-0.86 0.013l0.042-0.001zM17.547 5.315c3.373 0.474 6.371 2.582 7.994 5.626 0.787 1.468 1.25 3.212 1.25 5.063 0 0.996-0.134 1.961-0.384 2.877l0.018-0.076c-0.906 3.31-3.277 5.979-6.419 7.222-1.191 0.484-2.572 0.765-4.018 0.765-0.926 0-1.824-0.115-2.683-0.331l0.075 0.016c-3.141-0.81-5.681-2.913-7.060-5.694l-0.028-0.063c-0.679-1.333-1.076-2.906-1.076-4.573 0-0.052 0-0.103 0.001-0.155l-0 0.008c-0-0.031-0.001-0.068-0.001-0.105 0-2.203 0.679-4.247 1.838-5.935l-0.023 0.036c1.96-2.907 5.241-4.793 8.961-4.793 0.549 0 1.088 0.041 1.615 0.12l-0.059-0.007zM15.149 7.522c-3.69 0.381-6.762 3.138-7.491 6.725-0.114 0.557-0.21 1.67-0.166 1.936 0.064 0.335 0.25 0.618 0.51 0.805l0.004 0.003c0.205 0.142 0.267 0.157 0.666 0.157 0.408 0 0.456-0.013 0.67-0.168 0.347-0.25 0.526-0.626 0.526-1.106 0-1.437 0.662-3.018 1.728-4.133 1.080-1.128 2.779-1.874 4.278-1.874 0.48 0 0.856-0.179 1.106-0.526 0.155-0.214 0.168-0.262 0.168-0.67 0-0.398-0.014-0.461-0.157-0.666-0.235-0.339-0.547-0.499-1.010-0.515-0.042-0.001-0.091-0.001-0.14-0.001-0.244 0-0.485 0.012-0.722 0.036l0.030-0.002zM15.218 11.542c-1.748 0.329-3.128 1.613-3.592 3.278l-0.008 0.032c-0.162 0.605-0.162 1.69 0 2.294 0.45 1.572 1.663 2.786 3.202 3.227l0.033 0.008c0.605 0.162 1.69 0.162 2.294 0 1.277-0.365 2.309-1.224 2.893-2.353l0.012-0.026c0.338-0.674 0.443-1.152 0.443-2.003 0-0.566-0.024-0.811-0.114-1.147-0.414-1.547-1.71-2.84-3.235-3.23-0.55-0.139-1.427-0.176-1.93-0.080zM16.88 14.072c0.451 0.211 0.837 0.6 1.056 1.062 0.155 0.325 0.171 0.406 0.171 0.866s-0.016 0.541-0.171 0.866c-0.12 0.242-0.267 0.45-0.441 0.631l0.001-0.001c-0.16 0.158-0.418 0.341-0.63 0.44-0.325 0.155-0.406 0.171-0.866 0.171-0.461 0-0.539-0.016-0.87-0.173-1.299-0.616-1.658-2.19-0.752-3.301 0.234-0.288 0.688-0.587 1.045-0.686 0.164-0.043 0.353-0.067 0.547-0.067 0.33 0 0.643 0.071 0.925 0.198l-0.014-0.006z"></path>
    </symbol>
    <symbol id="icon-conditioner" viewBox="0 0 32 32">
      <path d="M2.587 0.038c-0.397 0.121-0.741 0.277-1.061 0.469l0.021-0.012c-0.602 0.412-1.071 0.977-1.357 1.639l-0.009 0.025-0.154 0.373-0.014 6.504c-0.013 5.838-0.006 6.534 0.070 6.8 0.315 1.090 1.269 2.040 2.397 2.386 0.307 0.094 0.854 0.098 13.52 0.098s13.213-0.003 13.52-0.098c1.128-0.346 2.082-1.296 2.397-2.386 0.077-0.266 0.083-0.962 0.070-6.8l-0.014-6.504-0.154-0.373c-0.376-0.901-1.078-1.603-1.955-1.97l-0.024-0.009-0.373-0.154-13.387-0.008c-7.363-0.003-13.435 0.005-13.493 0.019zM29.138 2.507c0.109 0.074 0.262 0.227 0.344 0.341l0.146 0.21v12.17l-0.131 0.186c-0.119 0.193-0.294 0.342-0.502 0.426l-0.007 0.002c-0.192 0.091-0.341 0.102-1.424 0.104l-1.208 0.002-0.021-2.014c-0.019-1.998-0.019-2.016-0.157-2.422-0.386-1.132-1.291-1.994-2.423-2.314l-0.025-0.006c-0.325-0.091-0.746-0.098-7.73-0.098-6.982 0-7.405 0.006-7.728 0.098-0.98 0.283-1.773 0.938-2.232 1.798l-0.010 0.020c-0.33 0.648-0.339 0.723-0.363 2.925l-0.022 2.014-1.208-0.002c-1.083-0.002-1.232-0.013-1.424-0.104-0.215-0.087-0.39-0.236-0.506-0.424l-0.003-0.005-0.131-0.186-0.016-5.974c-0.010-4.024 0.003-6.035 0.040-6.165 0.066-0.224 0.378-0.563 0.611-0.666 0.138-0.059 2.339-0.070 13.050-0.061l12.883 0.011 0.197 0.134zM23.179 11.546c0.169 0.053 0.314 0.14 0.434 0.253l-0-0c0.326 0.339 0.334 0.389 0.334 2.36v1.789h-15.894l0.002-1.8c0.002-1.992 0.010-2.050 0.358-2.378 0.328-0.307 0.029-0.296 7.565-0.299 5.96-0.003 6.973 0.008 7.202 0.075zM8.792 21.714c-0.16 0.059-0.298 0.142-0.418 0.245l0.002-0.002c-0.405 0.346-0.4 0.322-0.429 2.203l-0.027 1.68-0.146 0.312c-0.352 0.75-1.030 1.208-1.794 1.208-0.474 0-0.779 0.096-1.040 0.325-0.309 0.272-0.429 0.574-0.397 1.006 0.030 0.424 0.227 0.712 0.63 0.925 0.288 0.154 0.301 0.155 0.958 0.126 0.683-0.029 0.984-0.094 1.574-0.341 1.184-0.496 2.219-1.728 2.517-2.997 0.082-0.346 0.096-0.661 0.096-2.138 0-1.88-0.002-1.89-0.314-2.232-0.264-0.293-0.81-0.437-1.214-0.322zM15.619 21.725c-0.262 0.101-0.478 0.276-0.626 0.499l-0.003 0.005-0.138 0.198-0.014 4.376-0.013 4.376 0.123 0.237c0.077 0.147 0.222 0.304 0.381 0.411 0.234 0.158 0.291 0.173 0.67 0.173s0.437-0.014 0.67-0.173c0.157-0.106 0.284-0.243 0.376-0.404l0.126-0.239v-4.318c0-3.898-0.008-4.334-0.088-4.501-0.129-0.247-0.322-0.446-0.556-0.58l-0.007-0.004c-0.157-0.068-0.339-0.107-0.531-0.107-0.132 0-0.26 0.019-0.381 0.054l0.010-0.002zM22.483 21.733c-0.388 0.131-0.681 0.446-0.781 0.838l-0.002 0.008c-0.038 0.144-0.050 0.771-0.034 1.872 0.019 1.469 0.035 1.701 0.134 2.062 0.341 1.246 1.342 2.406 2.491 2.888 0.579 0.243 0.894 0.312 1.558 0.342 0.629 0.030 0.659 0.027 0.946-0.114 0.402-0.189 0.676-0.591 0.676-1.056 0-0.356-0.16-0.675-0.412-0.888l-0.002-0.001c-0.261-0.229-0.566-0.325-1.040-0.325-0.387 0-0.805-0.138-1.106-0.363-0.301-0.212-0.537-0.498-0.683-0.832l-0.005-0.013-0.146-0.312-0.027-1.68c-0.029-1.882-0.024-1.858-0.427-2.203-0.2-0.18-0.467-0.291-0.759-0.291-0.138 0-0.269 0.024-0.391 0.069l0.008-0.003z"></path>
    </symbol>
    <symbol id="icon-kitchen" viewBox="0 0 32 32">
      <path d="M24.827 2.926c-0.275 0.126-1.941 1.826-2.702 2.758-2.429 2.973-3.739 5.698-4.307 8.955-0.21 1.2-0.278 2.046-0.309 3.818-0.032 1.904-0.022 1.997 0.264 2.323 0.336 0.382 0.173 0.363 3.427 0.392l2.933 0.027v1.6l-0.269 0.034c-0.289 0.021-0.544 0.151-0.727 0.348l-0.001 0.001c-0.307 0.323-0.309 0.342-0.309 2.829 0.002 2.107 0.010 2.299 0.101 2.496 0.069 0.137 0.152 0.255 0.252 0.357l-0-0c0.293 0.274 0.466 0.309 1.499 0.309 1.046-0.002 1.23-0.045 1.518-0.352 0.334-0.357 0.31 0.645 0.309-12.832-0.002-11.842-0.005-12.29-0.101-12.496-0.203-0.401-0.612-0.671-1.084-0.671-0.179 0-0.348 0.039-0.501 0.108l0.008-0.003zM6.16 4.259c-0.284 0.144-0.502 0.384-0.612 0.678l-0.003 0.009c-0.042 0.139-0.053 0.979-0.038 2.762 0.022 2.827 0.018 2.789 0.398 3.691 0.574 1.362 1.934 2.557 3.322 2.92l0.24 0.062 0.026 7.010c0.030 7.731 0.002 7.138 0.355 7.474 0.217 0.193 0.504 0.311 0.818 0.311s0.602-0.118 0.82-0.312l-0.001 0.001c0.354-0.336 0.326 0.258 0.355-7.474l0.027-7.010 0.24-0.062c1.387-0.358 2.797-1.61 3.347-2.974 0.363-0.899 0.35-0.776 0.373-3.611 0.014-1.805 0.003-2.646-0.038-2.787-0.113-0.302-0.331-0.542-0.607-0.683l-0.007-0.003c-0.146-0.063-0.315-0.099-0.493-0.099-0.319 0-0.611 0.117-0.835 0.31l0.002-0.001c-0.336 0.32-0.325 0.235-0.358 2.918-0.034 2.693-0.037 2.717-0.381 3.323-0.254 0.45-0.987 1.13-1.214 1.13-0.037 0-0.054-1.122-0.054-3.389 0-2.942-0.011-3.414-0.083-3.586-0.392-0.941-1.787-0.941-2.181 0-0.072 0.171-0.083 0.643-0.083 3.586 0 2.267-0.018 3.389-0.054 3.389-0.227 0-0.958-0.68-1.214-1.13-0.342-0.603-0.346-0.63-0.379-3.323-0.034-2.683-0.024-2.598-0.36-2.918-0.222-0.192-0.513-0.308-0.832-0.308-0.178 0-0.347 0.036-0.501 0.102l0.008-0.003zM24.136 18.76c-0.021 0.051-0.494 0.067-2.125 0.067-1.155 0-2.11-0.011-2.122-0.022-0.046-0.046 0.053-2.061 0.134-2.725 0.403-3.278 1.582-5.986 3.762-8.637l0.347-0.424 0.014 5.837c0.008 3.211 0.002 5.867-0.011 5.904z"></path>
    </symbol>
    <symbol id="icon-geo" viewBox="0 0 32 32">
      <path d="M14.586 0.112c-2.656 0.299-5.026 1.331-6.958 2.886l0.026-0.020c-0.726 0.625-1.383 1.282-1.988 1.984l-0.020 0.024c-1.668 2.114-2.632 4.494-2.878 7.096-0.076 0.822-0.036 2.408 0.082 3.144 0.72 4.52 3.69 9.122 8.83 13.686 1.336 1.186 3.314 2.708 3.81 2.934 0.151 0.061 0.326 0.096 0.51 0.096s0.359-0.035 0.519-0.099l-0.009 0.003c0.244-0.112 0.752-0.464 1.57-1.092 2.48-1.902 4.902-4.236 6.648-6.408 2.45-3.046 3.96-6.152 4.418-9.092 0.122-0.782 0.164-2.34 0.084-3.18-0.232-2.474-1.13-4.766-2.678-6.832-0.744-0.91-1.55-1.716-2.43-2.436l-0.030-0.024c-2.038-1.526-4.32-2.43-6.75-2.674-0.404-0.029-0.875-0.046-1.349-0.046-0.495 0-0.986 0.018-1.472 0.054l0.065-0.004zM16.88 2.67c2.627 0.216 4.951 1.365 6.671 3.111l0.001 0.001c1.151 1.122 2.038 2.51 2.563 4.064l0.021 0.072c0.966 2.844 0.682 5.782-0.86 8.862-1.684 3.364-4.71 6.762-8.944 10.044l-0.332 0.26-0.44-0.338c-1.472-1.141-2.782-2.301-4.012-3.54l-0.002-0.002c-4.402-4.414-6.554-8.814-6.214-12.706 0.205-2.644 1.358-4.986 3.115-6.715l0.001-0.001c1.141-1.172 2.558-2.069 4.146-2.588l0.072-0.020c0.983-0.345 2.117-0.545 3.298-0.545 0.323 0 0.642 0.015 0.956 0.044l-0.040-0.003zM15.254 8.086c-0.737 0.122-1.397 0.368-1.988 0.718l0.026-0.014c-1.208 0.733-2.090 1.901-2.436 3.281l-0.008 0.037c-0.14 0.548-0.142 1.942-0.002 2.452 0.552 2.032 1.892 3.372 3.928 3.928 0.266 0.074 0.548 0.096 1.226 0.096s0.96-0.022 1.226-0.096c2.036-0.556 3.376-1.896 3.928-3.928 0.14-0.508 0.138-1.904-0.002-2.454-0.494-1.944-1.892-3.362-3.846-3.904-0.364-0.1-1.72-0.178-2.052-0.116zM16.54 10.69c0.194 0.042 0.506 0.152 0.694 0.246 0.43 0.218 0.98 0.768 1.182 1.188 0.16 0.33 0.302 0.898 0.302 1.21 0 0.31-0.142 0.88-0.302 1.208-0.294 0.505-0.702 0.914-1.191 1.2l-0.015 0.008c-0.33 0.16-0.9 0.302-1.21 0.302s-0.88-0.142-1.21-0.302c-0.504-0.294-0.912-0.703-1.198-1.192l-0.008-0.016c-0.165-0.353-0.273-0.765-0.301-1.198l-0.001-0.010c0-0.31 0.142-0.88 0.302-1.21 0.198-0.412 0.796-1.008 1.208-1.208 0.582-0.282 1.144-0.354 1.748-0.226z"></path>
    </symbol>
    <symbol id="icon-like-filled" viewBox="0 0 32 32">
      <path stroke-linejoin="round" stroke-linecap="round" stroke-width="3.067" d="M27.787 6.147a7.326 7.326 0 0 0-10.373 0L16.001 7.56l-1.413-1.413a7.333 7.333 0 0 0-10.374 0 7.333 7.333 0 0 0 0 10.374l11.787 11.787 11.787-11.787a7.345 7.345 0 0 0 2.15-5.187 7.33 7.33 0 0 0-2.15-5.187z"/>
    </symbol>
    <symbol id="icon-like-empty" viewBox="0 0 32 32">
      <path stroke-linejoin="round" stroke-linecap="round" stroke-width="3.067" d="M27.787 6.147a7.326 7.326 0 0 0-10.373 0L16.001 7.56l-1.413-1.413a7.333 7.333 0 0 0-10.374 0 7.333 7.333 0 0 0 0 10.374l11.787 11.787 11.787-11.787a7.345 7.345 0 0 0 2.15-5.187 7.33 7.33 0 0 0-2.15-5.187z"/>
    </symbol>
    <symbol id="icon-like" viewBox="0 0 33 32">
      <path d="M9.723 2.484c-4.308 0.144-7.877 3.427-8.448 7.773-0.084 0.64-0.041 2.044 0.083 2.715 0.232 1.257 0.803 2.548 1.635 3.695 0.444 0.613 12.656 12.831 13 13.007 0.365 0.187 0.984 0.187 1.349 0 0.344-0.176 12.556-12.393 13-13.007 1.204-1.66 1.769-3.364 1.769-5.333 0-2.427-0.907-4.592-2.64-6.305-1.566-1.565-3.73-2.534-6.12-2.534-0.026 0-0.052 0-0.078 0l0.004-0c-1.317 0.001-2.307 0.199-3.5 0.703-1.030 0.435-1.911 1.032-2.653 1.769l0.001-0.001-0.459 0.443-0.459-0.443c-1.753-1.697-4.017-2.563-6.485-2.481zM10.697 5.58c0.817 0.063 1.791 0.407 2.539 0.899 0.236 0.156 0.839 0.692 1.459 1.299 1.208 1.184 1.367 1.288 1.972 1.288 0.603 0 0.763-0.104 1.972-1.287 0.596-0.584 1.227-1.147 1.449-1.293 0.754-0.494 1.657-0.824 2.63-0.917l0.024-0.002c2.859-0.229 5.365 1.525 6.131 4.295 0.139 0.503 0.153 0.641 0.153 1.472s-0.015 0.969-0.153 1.472c-0.218 0.767-0.553 1.437-0.991 2.026l0.012-0.017c-0.191 0.251-2.633 2.736-5.779 5.88l-5.448 5.444-5.448-5.444c-2.996-2.995-5.591-5.632-5.764-5.861-0.849-1.117-1.228-2.359-1.161-3.8 0.047-0.988 0.268-1.747 0.76-2.607 0.723-1.263 2.024-2.267 3.475-2.679 0.472-0.135 1.335-0.247 1.639-0.213 0.076 0.009 0.315 0.029 0.531 0.045z"></path>
    </symbol>
    <symbol id="icon-camper-window" viewBox="0 0 46 32">
      <path d="M2.608 1.8h12.409c.105 0 .203-.04.278-.112L16.487.525a1.845 1.845 0 0 1 1.297-.524h18.817c.876 0 1.69.425 2.176 1.136l2.255 3.3c.32.468.349 1.067.077 1.564s-.8.805-1.377.805h-9.698v.956h4.967c1.317 0 2.501.763 3.018 1.945l2.908 6.65 2.548.994c1.36.531 2.24 1.797 2.24 3.227v6.158c0 .918-.766 1.666-1.708 1.666h-2.964c-.345 2.039-2.164 3.599-4.35 3.599s-4.005-1.561-4.35-3.599H16.14c-.345 2.039-2.164 3.599-4.35 3.599s-4.005-1.561-4.35-3.599H1.519c-.837 0-1.518-.664-1.518-1.481V4.345c0-1.403 1.17-2.544 2.608-2.544zm34.084 28.794c1.637 0 2.969-1.299 2.969-2.896s-1.332-2.896-2.969-2.896c-1.637 0-2.969 1.299-2.969 2.896s1.332 2.896 2.969 2.896zm-6.658-3.599h2.307l.02-.105.014-.071c.012-.055.025-.11.039-.164.003-.011.005-.023.009-.034a3.34 3.34 0 0 1 .057-.195l.019-.056a5.274 5.274 0 0 1 .122-.321l.033-.075c.016-.037.032-.072.05-.108l.038-.075.054-.103.041-.074.059-.101.043-.071.066-.101.044-.065.077-.105.04-.055.109-.135.016-.02c.043-.051.087-.1.132-.148l.043-.044.096-.099.056-.053.09-.084.062-.054.09-.077.066-.052.093-.071a1.22 1.22 0 0 1 .069-.05l.097-.068.069-.046c.034-.023.069-.044.104-.065l.068-.041c.038-.023.077-.044.116-.065l.059-.033.168-.084.013-.006c.061-.029.123-.056.186-.082l.061-.024.13-.05.075-.026.12-.039.082-.024c.039-.011.078-.023.118-.033.028-.007.056-.015.085-.021l.118-.026.087-.018c.04-.007.081-.015.122-.021l.086-.014.128-.016.082-.009.143-.011.07-.005a3.893 3.893 0 0 1 .502.005c.048.003.096.006.143.011.028.002.055.006.082.009l.128.016c.029.004.058.008.087.014.041.006.081.014.122.021l.087.018a4.084 4.084 0 0 1 .321.08l.082.024.12.039.075.026.13.05.061.024c.062.026.125.053.186.082l.013.006c.057.027.112.055.168.084l.059.033.116.065.068.041.104.065.069.046c.033.023.065.044.097.068l.069.05.093.071.066.052c.031.025.061.051.09.077l.062.054.09.084.056.053.096.099.043.044c.045.048.089.098.132.148l.016.02c.037.044.073.089.109.135l.04.055.077.105.044.065.066.101.043.071.059.101.041.074.054.103.038.075.05.108c.011.025.023.049.033.075.017.038.032.077.047.116a2.087 2.087 0 0 1 .075.205l.019.056c.02.064.039.129.056.195l.009.034c.014.055.027.109.039.164l.014.071.02.105h2.963a.263.263 0 0 0 .266-.26v-2.946h-1.124v-1.406h1.124v-1.806c0-.851-.523-1.606-1.333-1.922l-2.697-1.052H30.031v9.392zm0-10.798h9.257l-2.598-5.939a1.84 1.84 0 0 0-1.692-1.09h-4.967v7.03zM11.789 30.594c1.637 0 2.969-1.299 2.969-2.896s-1.332-2.896-2.969-2.896c-.051 0-.102.001-.153.004-1.364.067-2.488 1.038-2.756 2.309a2.812 2.812 0 0 0-.061.583c0 1.597 1.332 2.896 2.969 2.896zM1.441 22.383h1.124v1.406H1.441v3.131c0 .041.035.075.077.075h5.92l.02-.104.014-.072c.012-.054.024-.107.038-.16l.009-.038a4.26 4.26 0 0 1 .056-.193l.02-.058.046-.132.028-.072.046-.114a2.049 2.049 0 0 1 .084-.182l.038-.076.054-.102.042-.074.059-.1a2.156 2.156 0 0 1 .11-.171 1.08 1.08 0 0 1 .044-.066l.076-.104.042-.057.106-.132a3.757 3.757 0 0 1 .15-.171l.043-.045c.032-.033.063-.066.096-.098l.056-.053.089-.083.062-.055c.029-.025.059-.051.09-.075l.066-.053.092-.071.069-.05.096-.067.07-.047c.034-.023.069-.044.103-.065l.069-.042c.038-.023.077-.044.116-.065.02-.011.04-.023.061-.033.055-.029.11-.057.167-.083l.014-.007c.061-.029.123-.056.186-.082l.061-.024.13-.05.076-.026c.039-.014.079-.027.119-.039l.082-.024c.039-.011.078-.023.118-.033.028-.007.056-.015.085-.021l.118-.026.087-.018c.04-.007.081-.015.122-.021l.086-.014.128-.016.082-.009.143-.011.07-.005a3.893 3.893 0 0 1 .502.005c.048.003.096.006.143.011.028.002.055.006.082.009l.128.016c.029.004.058.008.086.014.041.006.081.014.122.021l.087.018a4.084 4.084 0 0 1 .321.08l.082.024c.04.012.08.026.119.039l.076.026.13.05.061.024c.062.026.124.053.186.082l.014.007c.056.026.112.054.167.083l.06.033.116.065.069.042c.035.021.069.042.103.065l.07.047c.032.022.065.044.096.067l.069.05.092.071c.023.017.044.035.066.053.031.025.061.05.09.076l.062.054.09.084.056.053.096.098.043.044c.045.048.089.098.132.148l.017.021c.036.044.073.088.107.134l.042.055.077.105.044.066c.023.033.044.066.066.1l.044.071.059.101.041.074.055.103a2.6 2.6 0 0 1 .087.183 2.343 2.343 0 0 1 .08.191l.028.071c.017.045.032.09.047.135l.019.055c.02.064.039.129.057.195l.007.031c.014.056.028.111.04.168l.013.069.021.106h12.453V6.106c0-.388.323-.703.721-.703h10.419c.018 0 .073 0 .107-.062s.004-.106-.006-.12l-2.255-3.3a1.18 1.18 0 0 0-.977-.51H17.784a.397.397 0 0 0-.278.112l-1.192 1.163a1.845 1.845 0 0 1-1.297.524H2.608c-.643 0-1.167.511-1.167 1.138v18.039z"/>
      <path d="M5.536 7.198h8.814c1.019 0 1.848.809 1.848 1.802v4.1c0 .994-.829 1.802-1.848 1.802H5.535c-1.019 0-1.848-.809-1.848-1.802V9c.001-.994.83-1.802 1.848-1.802zM5.129 13.1c0 .218.182.396.406.396h8.814a.402.402 0 0 0 .406-.396V9a.402.402 0 0 0-.406-.396H5.534A.402.402 0 0 0 5.128 9l.001 4.1z"/>
    </symbol>
    <symbol id="icon-camper-door" viewBox="0 0 46 32">
      <path d="M2.608 1.8h12.409c.105 0 .203-.04.278-.112L16.487.525a1.845 1.845 0 0 1 1.297-.524h18.817c.876 0 1.69.425 2.176 1.136l2.255 3.3c.32.468.349 1.067.077 1.564s-.8.805-1.377.805h-9.698v.956h4.967c1.317 0 2.501.763 3.018 1.945l2.908 6.65 2.548.994c1.36.531 2.24 1.797 2.24 3.227v6.158c0 .918-.766 1.666-1.708 1.666h-2.964c-.345 2.039-2.164 3.599-4.35 3.599s-4.005-1.561-4.35-3.599H16.14c-.345 2.039-2.164 3.599-4.35 3.599s-4.005-1.561-4.35-3.599H1.519c-.837 0-1.518-.664-1.518-1.481V4.345c0-1.403 1.17-2.544 2.608-2.544zm34.084 28.794c1.637 0 2.969-1.299 2.969-2.896s-1.332-2.896-2.969-2.896c-1.637 0-2.969 1.299-2.969 2.896s1.332 2.896 2.969 2.896zm-6.658-3.599h2.307l.02-.105.014-.071c.012-.055.025-.11.039-.164.003-.011.005-.023.009-.034a3.34 3.34 0 0 1 .057-.195l.019-.056a5.274 5.274 0 0 1 .122-.321l.033-.075c.016-.037.032-.072.05-.108l.038-.075.054-.103.041-.074.059-.101.043-.071.066-.101.044-.065.077-.105.04-.055.109-.135.016-.02c.043-.051.087-.1.132-.148l.043-.044.096-.099.056-.053.09-.084.062-.054.09-.077.066-.052.093-.071a1.22 1.22 0 0 1 .069-.05l.097-.068.069-.046c.034-.023.069-.044.104-.065l.068-.041c.038-.023.077-.044.116-.065l.059-.033.168-.084.013-.006c.061-.029.123-.056.186-.082l.061-.024.13-.05.075-.026.12-.039.082-.024c.039-.011.078-.023.118-.033.028-.007.056-.015.085-.021l.118-.026.087-.018c.04-.007.081-.015.122-.021l.086-.014.128-.016.082-.009.143-.011.07-.005a3.893 3.893 0 0 1 .502.005c.048.003.096.006.143.011.028.002.055.006.082.009l.128.016c.029.004.058.008.087.014.041.006.081.014.122.021l.087.018a4.084 4.084 0 0 1 .321.08l.082.024.12.039.075.026.13.05.061.024c.062.026.125.053.186.082l.013.006c.057.027.112.055.168.084l.059.033.116.065.068.041.104.065.069.046c.033.023.065.044.097.068l.069.05.093.071.066.052c.031.025.061.051.09.077l.062.054.09.084.056.053.096.099.043.044c.045.048.089.098.132.148l.016.02c.037.044.073.089.109.135l.04.055.077.105.044.065.066.101.043.071.059.101.041.074.054.103.038.075.05.108c.011.025.023.049.033.075.017.038.032.077.047.116a2.087 2.087 0 0 1 .075.205l.019.056c.02.064.039.129.056.195l.009.034c.014.055.027.109.039.164l.014.071.02.105h2.963a.263.263 0 0 0 .266-.26v-2.946h-1.124v-1.406h1.124v-1.806c0-.851-.523-1.606-1.333-1.922l-2.697-1.052H30.031v9.392zm0-10.798h9.257l-2.598-5.939a1.84 1.84 0 0 0-1.692-1.09h-4.967v7.03zM11.789 30.594c1.637 0 2.969-1.299 2.969-2.896s-1.332-2.896-2.969-2.896c-.051 0-.102.001-.153.004-1.364.067-2.488 1.038-2.756 2.309a2.812 2.812 0 0 0-.061.583c0 1.597 1.332 2.896 2.969 2.896zM1.441 22.383h1.124v1.406H1.441v3.131c0 .041.035.075.077.075h5.92l.02-.104.014-.072c.012-.054.024-.107.038-.16l.009-.038a4.26 4.26 0 0 1 .056-.193l.02-.058.046-.132.028-.072.046-.114a2.049 2.049 0 0 1 .084-.182l.038-.076.054-.102.042-.074.059-.1a2.156 2.156 0 0 1 .11-.171 1.08 1.08 0 0 1 .044-.066l.076-.104.042-.057.106-.132a3.757 3.757 0 0 1 .15-.171l.043-.045c.032-.033.063-.066.096-.098l.056-.053.089-.083.062-.055c.029-.025.059-.051.09-.075l.066-.053.092-.071.069-.05.096-.067.07-.047c.034-.023.069-.044.103-.065l.069-.042c.038-.023.077-.044.116-.065.02-.011.04-.023.061-.033.055-.029.11-.057.167-.083l.014-.007c.061-.029.123-.056.186-.082l.061-.024.13-.05.076-.026c.039-.014.079-.027.119-.039l.082-.024c.039-.011.078-.023.118-.033.028-.007.056-.015.085-.021l.118-.026.087-.018c.04-.007.081-.015.122-.021l.086-.014.128-.016.082-.009.143-.011.07-.005a3.893 3.893 0 0 1 .502.005c.048.003.096.006.143.011.028.002.055.006.082.009l.128.016c.029.004.058.008.086.014.041.006.081.014.122.021l.087.018a4.084 4.084 0 0 1 .321.08l.082.024c.04.012.08.026.119.039l.076.026.13.05.061.024c.062.026.124.053.186.082l.014.007c.056.026.112.054.167.083l.06.033.116.065.069.042c.035.021.069.042.103.065l.07.047c.032.022.065.044.096.067l.069.05.092.071c.023.017.044.035.066.053.031.025.061.05.09.076l.062.054.09.084.056.053.096.098.043.044c.045.048.089.098.132.148l.017.021c.036.044.073.088.107.134l.042.055.077.105.044.066c.023.033.044.066.066.1l.044.071.059.101.041.074.055.103a2.6 2.6 0 0 1 .087.183 2.343 2.343 0 0 1 .08.191l.028.071c.017.045.032.09.047.135l.019.055c.02.064.039.129.057.195l.007.031c.014.056.028.111.04.168l.013.069.021.106h12.453V6.106c0-.388.323-.703.721-.703h10.419c.018 0 .073 0 .107-.062s.004-.106-.006-.12l-2.255-3.3a1.18 1.18 0 0 0-.977-.51H17.784a.397.397 0 0 0-.278.112l-1.192 1.163a1.845 1.845 0 0 1-1.297.524H2.608c-.643 0-1.167.511-1.167 1.138v18.039z"/>
      <path d="M20.116 7.198h4.558c.921 0 1.67.731 1.67 1.629v15.046a.712.712 0 0 1-.721.703h-6.456a.712.712 0 0 1-.721-.703V8.827c-.001-.899.748-1.629 1.669-1.629zm-.229 15.972h5.015v-8.267h-5.015v8.267zm0-9.673h5.015V8.828a.226.226 0 0 0-.229-.223h-4.558c-.126 0-.229.1-.229.223l.001 4.669z"/>
    </symbol>
    <symbol id="icon-camper-full" viewBox="0 0 46 32">
      <path d="M2.608 1.8h12.409c.105 0 .203-.04.278-.112L16.487.525a1.845 1.845 0 0 1 1.297-.524h18.817c.876 0 1.69.425 2.176 1.136l2.255 3.3c.32.468.349 1.067.077 1.564s-.8.805-1.377.805h-9.698v.956h4.967c1.317 0 2.501.763 3.018 1.945l2.908 6.65 2.548.994c1.36.531 2.24 1.797 2.24 3.227v6.158c0 .918-.766 1.666-1.708 1.666h-2.964c-.345 2.039-2.164 3.599-4.35 3.599s-4.005-1.561-4.35-3.599H16.14c-.345 2.039-2.164 3.599-4.35 3.599s-4.005-1.561-4.35-3.599H1.519c-.837 0-1.518-.664-1.518-1.481V4.345c0-1.403 1.17-2.544 2.608-2.544zm34.084 28.794c1.637 0 2.969-1.299 2.969-2.896s-1.332-2.896-2.969-2.896c-1.637 0-2.969 1.299-2.969 2.896s1.332 2.896 2.969 2.896zm-6.658-3.599h2.307l.02-.105.014-.071c.012-.055.025-.11.039-.164.003-.011.005-.023.009-.034a3.34 3.34 0 0 1 .057-.195l.019-.056a5.274 5.274 0 0 1 .122-.321l.033-.075c.016-.037.032-.072.05-.108l.038-.075.054-.103.041-.074.059-.101.043-.071.066-.101.044-.065.077-.105.04-.055.109-.135.016-.02c.043-.051.087-.1.132-.148l.043-.044.096-.099.056-.053.09-.084.062-.054.09-.077.066-.052.093-.071a1.22 1.22 0 0 1 .069-.05l.097-.068.069-.046c.034-.023.069-.044.104-.065l.068-.041c.038-.023.077-.044.116-.065l.059-.033.168-.084.013-.006c.061-.029.123-.056.186-.082l.061-.024.13-.05.075-.026.12-.039.082-.024c.039-.011.078-.023.118-.033.028-.007.056-.015.085-.021l.118-.026.087-.018c.04-.007.081-.015.122-.021l.086-.014.128-.016.082-.009.143-.011.07-.005a3.893 3.893 0 0 1 .502.005c.048.003.096.006.143.011.028.002.055.006.082.009l.128.016c.029.004.058.008.087.014.041.006.081.014.122.021l.087.018a4.084 4.084 0 0 1 .321.08l.082.024.12.039.075.026.13.05.061.024c.062.026.125.053.186.082l.013.006c.057.027.112.055.168.084l.059.033.116.065.068.041.104.065.069.046c.033.023.065.044.097.068l.069.05.093.071.066.052c.031.025.061.051.09.077l.062.054.09.084.056.053.096.099.043.044c.045.048.089.098.132.148l.016.02c.037.044.073.089.109.135l.04.055.077.105.044.065.066.101.043.071.059.101.041.074.054.103.038.075.05.108c.011.025.023.049.033.075.017.038.032.077.047.116a2.087 2.087 0 0 1 .075.205l.019.056c.02.064.039.129.056.195l.009.034c.014.055.027.109.039.164l.014.071.02.105h2.963a.263.263 0 0 0 .266-.26v-2.946h-1.124v-1.406h1.124v-1.806c0-.851-.523-1.606-1.333-1.922l-2.697-1.052H30.031v9.392zm0-10.798h9.257l-2.598-5.939a1.84 1.84 0 0 0-1.692-1.09h-4.967v7.03zM11.789 30.594c1.637 0 2.969-1.299 2.969-2.896s-1.332-2.896-2.969-2.896c-.051 0-.102.001-.153.004-1.364.067-2.488 1.038-2.756 2.309a2.812 2.812 0 0 0-.061.583c0 1.597 1.332 2.896 2.969 2.896zM1.441 22.383h1.124v1.406H1.441v3.131c0 .041.035.075.077.075h5.92l.02-.104.014-.072c.012-.054.024-.107.038-.16l.009-.038a4.26 4.26 0 0 1 .056-.193l.02-.058.046-.132.028-.072.046-.114a2.049 2.049 0 0 1 .084-.182l.038-.076.054-.102.042-.074.059-.1a2.156 2.156 0 0 1 .11-.171 1.08 1.08 0 0 1 .044-.066l.076-.104.042-.057.106-.132a3.757 3.757 0 0 1 .15-.171l.043-.045c.032-.033.063-.066.096-.098l.056-.053.089-.083.062-.055c.029-.025.059-.051.09-.075l.066-.053.092-.071.069-.05.096-.067.07-.047c.034-.023.069-.044.103-.065l.069-.042c.038-.023.077-.044.116-.065.02-.011.04-.023.061-.033.055-.029.11-.057.167-.083l.014-.007c.061-.029.123-.056.186-.082l.061-.024.13-.05.076-.026c.039-.014.079-.027.119-.039l.082-.024c.039-.011.078-.023.118-.033.028-.007.056-.015.085-.021l.118-.026.087-.018c.04-.007.081-.015.122-.021l.086-.014.128-.016.082-.009.143-.011.07-.005a3.893 3.893 0 0 1 .502.005c.048.003.096.006.143.011.028.002.055.006.082.009l.128.016c.029.004.058.008.086.014.041.006.081.014.122.021l.087.018a4.084 4.084 0 0 1 .321.08l.082.024c.04.012.08.026.119.039l.076.026.13.05.061.024c.062.026.124.053.186.082l.014.007c.056.026.112.054.167.083l.06.033.116.065.069.042c.035.021.069.042.103.065l.07.047c.032.022.065.044.096.067l.069.05.092.071c.023.017.044.035.066.053.031.025.061.05.09.076l.062.054.09.084.056.053.096.098.043.044c.045.048.089.098.132.148l.017.021c.036.044.073.088.107.134l.042.055.077.105.044.066c.023.033.044.066.066.1l.044.071.059.101.041.074.055.103a2.6 2.6 0 0 1 .087.183 2.343 2.343 0 0 1 .08.191l.028.071c.017.045.032.09.047.135l.019.055c.02.064.039.129.057.195l.007.031c.014.056.028.111.04.168l.013.069.021.106h12.453V6.106c0-.388.323-.703.721-.703h10.419c.018 0 .073 0 .107-.062s.004-.106-.006-.12l-2.255-3.3a1.18 1.18 0 0 0-.977-.51H17.784a.397.397 0 0 0-.278.112l-1.192 1.163a1.845 1.845 0 0 1-1.297.524H2.608c-.643 0-1.167.511-1.167 1.138v18.039z"/>
      <path d="M20.116 7.198h4.558c.921 0 1.67.731 1.67 1.629v15.046a.712.712 0 0 1-.721.703h-6.456a.712.712 0 0 1-.721-.703V8.827c-.001-.899.748-1.629 1.669-1.629zm-.229 15.972h5.015v-8.267h-5.015v8.267zm0-9.673h5.015V8.828a.226.226 0 0 0-.229-.223h-4.558c-.126 0-.229.1-.229.223v4.669h.001zM5.536 7.198h8.814c1.019 0 1.848.809 1.848 1.802v4.1c0 .994-.829 1.802-1.848 1.802H5.535c-1.019 0-1.848-.809-1.848-1.802V9c.001-.994.83-1.802 1.848-1.802zM5.129 13.1c0 .218.182.396.406.396h8.814a.402.402 0 0 0 .406-.396V9a.402.402 0 0 0-.406-.396H5.534A.402.402 0 0 0 5.128 9v4.1h.001z"/>
    </symbol>
    <symbol id="icon-shower" viewBox="0 0 31 32">
      <path d="M4.784 4.78c-0.331 0.149-0.558 0.476-0.558 0.857 0 0.010 0 0.019 0 0.029l-0-0.001c0 0.144 0.029 0.32 0.065 0.39s0.691 0.756 1.458 1.527l1.395 1.4-0.288 0.429c-0.764 1.126-1.219 2.514-1.219 4.009 0 0.014 0 0.028 0 0.043v-0.002c-0 0.021-0 0.046-0 0.072 0 1.521 0.47 2.932 1.272 4.096l-0.016-0.024 0.204 0.303-0.724 0.731c-0.399 0.401-0.753 0.787-0.789 0.857-0.090 0.177-0.080 0.621 0.017 0.811 0.276 0.534 0.942 0.696 1.441 0.35 0.268-0.185 13.13-13.122 13.226-13.301 0.040-0.075 0.072-0.255 0.072-0.401 0-0.502-0.348-0.894-0.838-0.942-0.438-0.042-0.582 0.044-1.38 0.825l-0.734 0.72-0.362-0.235c-0.788-0.511-1.712-0.893-2.702-1.088l-0.050-0.008c-0.735-0.132-1.985-0.118-2.689 0.028-1.033 0.216-1.897 0.573-2.714 1.121l-0.351 0.236-1.379-1.372c-0.89-0.886-1.446-1.401-1.569-1.453-0.232-0.097-0.579-0.099-0.788-0.006zM14.106 8.174c0.263 0.054 0.658 0.17 0.879 0.258 0.398 0.159 0.92 0.434 0.966 0.509 0.014 0.021-1.669 1.731-3.737 3.799l-3.761 3.761-0.219-0.411c-0.955-1.792-0.877-3.904 0.207-5.57 0.31-0.477 1.075-1.261 1.502-1.539 1.276-0.834 2.689-1.107 4.164-0.808zM20.325 12.522c-0.529 0.21-0.761 0.946-0.447 1.421 0.396 0.599 1.287 0.581 1.632-0.033 0.286-0.509 0.052-1.191-0.477-1.391-0.179-0.068-0.534-0.066-0.708 0.003zM25.496 13.814c-0.523 0.209-0.746 0.899-0.452 1.4 0.363 0.619 1.286 0.612 1.637-0.012 0.286-0.509 0.052-1.191-0.477-1.392-0.178-0.067-0.533-0.066-0.708 0.003zM16.446 16.401c-0.17 0.068-0.402 0.292-0.504 0.485-0.122 0.234-0.105 0.683 0.037 0.919 0.365 0.61 1.305 0.601 1.652-0.017 0.286-0.509 0.052-1.191-0.477-1.391-0.179-0.068-0.534-0.066-0.708 0.003zM21.617 17.693c-0.35 0.14-0.586 0.515-0.582 0.926 0.005 0.546 0.395 0.93 0.945 0.93s0.945-0.388 0.946-0.931c0.002-0.575-0.404-0.988-0.963-0.979-0.124 0.002-0.243 0.021-0.355 0.057l0.009-0.002zM12.567 20.279c-0.17 0.068-0.402 0.292-0.504 0.485-0.134 0.256-0.108 0.706 0.056 0.953 0.378 0.571 1.292 0.553 1.637-0.033 0.141-0.238 0.16-0.689 0.039-0.92-0.105-0.202-0.337-0.418-0.52-0.488-0.179-0.068-0.534-0.066-0.708 0.003zM17.739 21.572c-0.17 0.068-0.402 0.292-0.504 0.486-0.046 0.087-0.081 0.282-0.081 0.45 0 0.54 0.391 0.92 0.948 0.92s0.948-0.38 0.947-0.92c0-0.587-0.401-0.999-0.964-0.99-0.124 0.002-0.243 0.021-0.355 0.057l0.009-0.002zM13.835 25.472c-0.388 0.209-0.559 0.49-0.56 0.914 0 0.54 0.391 0.92 0.948 0.92 0.559 0 0.947-0.38 0.947-0.927 0-0.353-0.103-0.562-0.393-0.797-0.241-0.194-0.69-0.247-0.943-0.111z"></path>
    </symbol>
    <symbol id="icon-tv" viewBox="0 0 31 32">
      <path d="M9.31 1.668c-0.305 0.156-0.427 0.337-0.455 0.674-0.017 0.211 0.002 0.326 0.082 0.481 0.061 0.116 1.016 1.112 2.255 2.349 1.182 1.18 2.15 2.162 2.15 2.183s-1.46 0.045-3.246 0.055c-3.648 0.020-3.439 0-4.35 0.43-1.157 0.545-2.002 1.455-2.436 2.618-0.292 0.787-0.278 0.51-0.3 6.17-0.013 3.58-0.001 5.378 0.038 5.714 0.231 1.998 1.608 3.577 3.57 4.098l0.439 0.117h16.912l0.439-0.117c1.69-0.444 2.997-1.739 3.45-3.388l0.008-0.034 0.136-0.495 0.001-5.508c0-5.178-0.006-5.533-0.096-5.916-0.345-1.474-1.269-2.621-2.626-3.26-0.912-0.43-0.702-0.409-4.35-0.43-1.785-0.011-3.246-0.035-3.246-0.055s0.968-1.003 2.15-2.183c1.182-1.18 2.194-2.232 2.25-2.338 0.065-0.118 0.103-0.259 0.103-0.409 0-0.475-0.385-0.86-0.86-0.86-0.088 0-0.173 0.013-0.253 0.038l0.006-0.002c-0.184 0.053-0.601 0.448-2.892 2.735l-2.676 2.671-2.651-2.648c-1.83-1.829-2.709-2.673-2.842-2.728-0.264-0.11-0.444-0.1-0.712 0.037zM24.224 9.272c0.968 0.343 1.702 1.129 1.965 2.108l0.005 0.022c0.115 0.451 0.117 10.641 0.002 11.129-0.23 0.975-1.013 1.837-1.947 2.143l-0.381 0.124h-16.704l-0.381-0.124c-0.934-0.306-1.717-1.169-1.947-2.143-0.115-0.488-0.113-10.678 0.002-11.129 0.23-0.902 0.951-1.737 1.783-2.063 0.594-0.234 0.401-0.229 9.024-0.219l8.172 0.009 0.408 0.145zM11.352 28.781c-0.339 0.124-0.577 0.444-0.577 0.82 0 0.080 0.011 0.157 0.031 0.23l-0.001-0.006c0.060 0.223 0.314 0.498 0.538 0.583 0.098 0.037 1.458 0.054 4.173 0.054s4.075-0.017 4.173-0.054c0.381-0.143 0.627-0.58 0.558-0.989-0.045-0.266-0.34-0.58-0.619-0.657-0.143-0.040-1.422-0.057-4.138-0.055-3.238 0.001-3.967 0.015-4.137 0.075z"></path>
    </symbol>
    <symbol id="icon-calendar" viewBox="0 0 32 32">
      <path d="M10.187 1.578c-0.13 0.061-0.242 0.137-0.34 0.227l0.001-0.001c-0.299 0.285-0.326 0.389-0.355 1.397l-0.026 0.933-1.814 0.030c-2 0.032-2.054 0.040-2.752 0.405-0.96 0.509-1.673 1.379-1.963 2.424l-0.007 0.028c-0.102 0.402-0.104 0.632-0.104 10.314s0.002 9.912 0.104 10.315c0.338 1.314 1.44 2.418 2.755 2.754 0.402 0.102 0.632 0.106 10.314 0.106s9.912-0.003 10.314-0.106c1.315-0.336 2.418-1.44 2.755-2.754 0.102-0.403 0.104-0.634 0.104-10.315s-0.002-9.912-0.104-10.314c-0.297-1.073-1.009-1.942-1.948-2.441l-0.021-0.010c-0.698-0.365-0.752-0.373-2.752-0.405l-1.814-0.030-0.026-0.933c-0.029-1.008-0.056-1.112-0.355-1.397-0.217-0.193-0.504-0.311-0.818-0.311s-0.602 0.118-0.82 0.312l0.001-0.001c-0.301 0.285-0.326 0.389-0.355 1.397l-0.027 0.933h-8.266l-0.027-0.933c-0.029-1.008-0.054-1.112-0.355-1.397-0.224-0.193-0.518-0.31-0.839-0.31-0.165 0-0.322 0.031-0.467 0.087l0.009-0.003zM9.493 7.467c0.029 1.008 0.056 1.112 0.355 1.397 0.55 0.523 1.504 0.368 1.877-0.304 0.069-0.126 0.094-0.36 0.115-1.093l0.027-0.934h8.266l0.027 0.934c0.029 1.008 0.054 1.112 0.355 1.397 0.217 0.193 0.504 0.311 0.818 0.311s0.602-0.118 0.82-0.312l-0.001 0.001c0.299-0.285 0.326-0.389 0.355-1.397l0.026-0.934h1.547c1.51 0.002 1.554 0.003 1.826 0.126 0.342 0.155 0.658 0.488 0.792 0.837 0.094 0.245 0.102 0.427 0.102 2.451v2.186h-21.6v-2.186c0-2.018 0.008-2.208 0.101-2.448 0.191-0.478 0.603-0.832 1.107-0.936l0.010-0.002c0.123-0.024 0.859-0.040 1.635-0.037l1.414 0.008 0.026 0.934zM26.8 20.72c0 5.957-0.003 6.197-0.102 6.45-0.155 0.37-0.433 0.664-0.782 0.834l-0.009 0.004-0.278 0.125h-9.6c-9.315 0-9.608-0.003-9.864-0.101-0.37-0.156-0.663-0.435-0.833-0.784l-0.004-0.010-0.126-0.278-0.014-6.158c-0.008-3.387-0.003-6.189 0.011-6.227 0.022-0.054 2.058-0.066 10.814-0.054l10.789 0.013v6.187z"></path>
    </symbol>
    <symbol id="icon-bed" viewBox="0 0 32 32">
      <path d="M7.526 5.016c-1.166 0.306-2.214 1.36-2.514 2.531-0.101 0.394-0.106 0.592-0.106 3.605v3.189l-0.278 0.141c-0.997 0.499-1.885 1.477-2.35 2.586-0.381 0.906-0.374 0.811-0.397 5.17-0.024 4.333-0.035 4.171 0.317 4.531 0.243 0.25 0.445 0.336 0.784 0.339 0.011 0 0.023 0.001 0.036 0.001 0.295 0 0.563-0.115 0.762-0.302l-0.001 0.001c0.222-0.202 0.293-0.41 0.328-0.96 0.029-0.464 0.048-0.539 0.155-0.627 0.118-0.096 0.486-0.099 11.738-0.099s11.619 0.003 11.738 0.099c0.107 0.088 0.126 0.163 0.155 0.627 0.035 0.55 0.106 0.758 0.328 0.96 0.227 0.206 0.485 0.304 0.797 0.301 0.014 0.001 0.030 0.001 0.046 0.001 0.295 0 0.559-0.131 0.737-0.339l0.001-0.001c0.352-0.36 0.341-0.2 0.317-4.533-0.024-4.355-0.018-4.266-0.397-5.168-0.466-1.109-1.354-2.086-2.35-2.586l-0.278-0.141v-3.189c0-3.013-0.005-3.211-0.106-3.605-0.302-1.182-1.352-2.232-2.534-2.534-0.408-0.104-0.59-0.106-8.475-0.102-7.789 0.002-8.070 0.005-8.451 0.106zM24.066 7.245c0.299 0.147 0.654 0.531 0.742 0.802 0.074 0.226 0.133 3.443 0.062 3.413-0.845-0.383-1.009-0.464-1.172-0.545l0.674 0.303c-0.231-0.117-0.499-0.213-0.78-0.274l-0.023-0.004c-0.557-0.093-5.792-0.078-6.243 0.018-0.427 0.103-0.802 0.274-1.134 0.503l0.011-0.007-0.202 0.133-0.254-0.163c-0.338-0.23-0.737-0.399-1.167-0.483l-0.020-0.003c-0.478-0.077-5.666-0.075-6.13 0.003-0.304 0.066-0.572 0.162-0.823 0.287l0.020-0.009-0.498 0.242c-0.024 0.010-0.037-0.722-0.026-1.627 0.019-1.806 0.024-1.838 0.36-2.221 0.19-0.23 0.451-0.394 0.749-0.459l0.009-0.002c0.128-0.026 3.686-0.043 7.91-0.038l7.68 0.008 0.253 0.125zM14.373 13.219c0.248 0.114 0.315 0.184 0.427 0.451l0.082 0.197h-6.773l0.056-0.147c0.106-0.228 0.28-0.41 0.496-0.522l0.006-0.003c0.126-0.056 0.715-0.072 2.826-0.072 2.467 0 2.683 0.006 2.88 0.096zM23.322 13.194c0.228 0.111 0.408 0.295 0.511 0.52l0.003 0.007 0.056 0.147h-6.773l0.082-0.197c0.112-0.267 0.179-0.338 0.427-0.451 0.197-0.090 0.416-0.098 2.867-0.098 2.139-0.002 2.69 0.013 2.827 0.072zM25.523 16.165c0.702 0.126 1.499 0.666 1.893 1.28 0.096 0.149 0.235 0.43 0.31 0.626l0.139 0.357 0.016 2.226 0.018 2.227h-23.792v-2.043c0-1.248 0.022-2.166 0.058-2.36 0.032-0.174 0.139-0.493 0.238-0.709 0.347-0.752 1.229-1.448 2.024-1.598 0.392-0.075 18.688-0.080 19.096-0.005z"></path>
    </symbol>
    <symbol id="icon-route" viewBox="0 0 32 32">
      <path d="M6.667 4a2.667 2.667 0 1 0 0 5.334 2.667 2.667 0 0 0 0-5.334zM1.333 6.667a5.333 5.333 0 1 1 10.666 0 5.333 5.333 0 0 1-10.666 0zM25.333 22.667a2.667 2.667 0 1 0 0 5.334 2.667 2.667 0 0 0 0-5.334zM20 25.333a5.333 5.333 0 1 1 10.667 0 5.333 5.333 0 0 1-10.667 0z"/>
      <path d="M13.333 6.667c0-.736.597-1.333 1.333-1.333h8.4c4.13 0 5.62 5.404 1.987 7.429L9.58 21.567a1.295 1.295 0 0 0 .686 2.434h7.067a1.333 1.333 0 0 1 0 2.666h-7.067c-4.13 0-5.619-5.404-1.987-7.429l15.473-8.804A1.295 1.295 0 0 0 23.066 8h-8.4a1.333 1.333 0 0 1-1.333-1.333z"/>
    </symbol>
    <symbol id="icon-fuel" viewBox="0 0 32 32">
      <path d="m26.36 9.64.013-.013-4.96-4.96L20 6.08l2.813 2.813a3.324 3.324 0 0 0-1.17 5.464 3.333 3.333 0 0 0 2.357.976c.48 0 .92-.107 1.333-.28v9.613a1.335 1.335 0 0 1-2.277.943 1.335 1.335 0 0 1-.391-.943v-6a2.668 2.668 0 0 0-2.667-2.667h-1.333V6.666a2.668 2.668 0 0 0-2.667-2.667h-8a2.668 2.668 0 0 0-2.667 2.667v21.333h13.333v-10h2v6.667a3.333 3.333 0 1 0 6.667-.001V11.998c0-.92-.373-1.76-.973-2.36zM16 18v7.333H8V16h8v2zm0-4.667H8V6.666h8v6.667zm8 0a1.333 1.333 0 1 1-.002-2.665A1.333 1.333 0 0 1 24 13.333z"/>
    </symbol>
    <symbol id="icon-transmission" viewBox="0 0 32 32">
      <path d="M5.84 2.957c-1.191 0.273-2.158 1.062-2.665 2.114l-0.010 0.023c-0.445 0.933-0.456 2.282-0.024 3.203 0.429 0.915 1.104 1.582 1.997 1.971l0.35 0.152 0.016 1.794 0.016 1.792 0.2 0.405c0.264 0.533 0.67 0.939 1.203 1.202l0.405 0.2 3.472 0.054 0.027 4.402 0.026 4.403 0.2 0.405c0.264 0.533 0.67 0.939 1.203 1.203l0.405 0.2 2.43 0.016c1.664 0.011 2.493-0.002 2.63-0.042 0.451-0.133 0.782-0.6 0.784-1.109 0.001-0.014 0.001-0.031 0.001-0.047 0-0.458-0.27-0.853-0.66-1.035l-0.007-0.003c-0.197-0.091-0.384-0.099-2.357-0.099-1.878-0.002-2.152-0.011-2.226-0.086-0.077-0.075-0.083-0.506-0.072-4.146l0.014-4.062 2.267-0.027c2.478-0.029 2.413-0.021 2.73-0.355 0.429-0.451 0.408-1.259-0.043-1.682-0.346-0.325-0.101-0.31-5.349-0.31-4.29 0-4.806-0.008-4.882-0.083-0.072-0.072-0.083-0.286-0.083-1.534v-1.451l0.354-0.154c1.126-0.491 1.989-1.525 2.234-2.675 0.047-0.262 0.074-0.564 0.074-0.872 0-0.311-0.028-0.616-0.080-0.913l0.005 0.031c-0.266-1.259-1.331-2.402-2.613-2.803-0.48-0.15-1.501-0.192-1.973-0.082zM7.368 5.453c0.496 0.293 0.752 0.736 0.752 1.299 0 0.394-0.144 0.734-0.429 1.019-0.283 0.283-0.557 0.387-1.024 0.387-0.474 0-0.742-0.104-1.040-0.402-0.768-0.768-0.437-2.086 0.613-2.43 0.074-0.024 0.304-0.035 0.514-0.027 0.293 0.013 0.435 0.050 0.614 0.154zM22.16 9.595c-0.138 0.067-0.255 0.151-0.357 0.251l0-0c-0.318 0.341-0.31 0.216-0.309 4.165 0.002 3.405 0.006 3.627 0.101 3.829 0.4 0.867 1.662 0.899 2.13 0.053 0.069-0.125 0.094-0.36 0.115-1.093l0.027-0.933 0.773-0.032c1.136-0.046 1.582-0.23 2.301-0.957 0.64-0.645 0.899-1.282 0.899-2.211 0-0.582-0.074-0.923-0.306-1.411-0.374-0.787-1.31-1.534-2.138-1.704-0.162-0.034-0.866-0.058-1.653-0.058-1.221 0.002-1.394 0.013-1.584 0.101zM25.075 11.989c0.512 0.317 0.507 1.040-0.008 1.362-0.158 0.098-0.267 0.115-0.694 0.117h-0.506l-0.016-0.744c-0.004-0.088-0.007-0.192-0.007-0.296 0-0.185 0.008-0.368 0.023-0.549l-0.002 0.024c0.048-0.125 0.976-0.058 1.21 0.086zM22.16 21.595c-0.138 0.067-0.255 0.151-0.357 0.251l0-0c-0.315 0.336-0.31 0.282-0.309 3.499 0.002 2.755 0.008 2.962 0.101 3.162 0.124 0.263 0.335 0.468 0.596 0.581l0.008 0.003c0.318 0.133 2.234 0.117 2.782-0.022 1.344-0.373 2.381-1.411 2.747-2.728l0.007-0.028c0.144-0.558 0.144-1.403 0-1.962-0.372-1.344-1.41-2.381-2.726-2.747l-0.027-0.007c-0.346-0.088-0.589-0.106-1.509-0.104-0.955 0.002-1.126 0.014-1.312 0.101zM24.587 24.010c0.517 0.221 0.864 0.754 0.864 1.326 0 0.752-0.594 1.389-1.344 1.446l-0.24 0.018-0.014-1.413c-0.005-0.17-0.007-0.37-0.007-0.57 0-0.32 0.007-0.638 0.020-0.955l-0.002 0.045c0.035-0.090 0.395-0.038 0.723 0.102z"></path>
    </symbol>
    <symbol id="icon-adults" viewBox="0 0 32 32">
      <path d="M9.067 24.133h-4.4c-.267 0-.4-.133-.533-.267s-.267-.4-.133-.667c.8-2.267 2.8-3.6 5.067-3.6 2.8 0 5.067-2.4 5.067-5.2s-2.267-5.467-5.067-5.467c-2.8 0-5.067 2.4-5.067 5.333a5.69 5.69 0 0 0 1.333 3.6c-1.733.933-3.067 2.4-3.867 4.4-.267.933-.133 2.133.533 3.067s1.6 1.467 2.667 1.467h4.4c.8 0 1.333-.533 1.333-1.333s-.533-1.333-1.333-1.333zm-2.4-9.866c0-1.467 1.067-2.533 2.4-2.533s2.4 1.2 2.4 2.533c0 1.467-1.067 2.533-2.4 2.533s-2.4-1.2-2.4-2.533z"/>
      <path d="M30.533 21.467c-.933-2.533-2.8-4.4-4.933-5.467 1.2-1.067 1.867-2.667 1.867-4.533C27.467 8 24.8 5.2 21.6 5.2s-5.867 2.8-5.867 6.267A6.35 6.35 0 0 0 17.6 16c-2.133 1.067-4 2.933-4.933 5.467-.667 1.2-.4 2.533.267 3.6s1.867 1.6 3.067 1.6h11.067c1.2 0 2.4-.667 3.067-1.6.8-1.067.933-2.4.4-3.6zM18.267 11.6c0-2 1.467-3.6 3.2-3.6s3.2 1.6 3.2 3.6-1.467 3.6-3.2 3.6-3.2-1.733-3.2-3.6zm9.6 12c-.133.133-.4.533-.8.533H16c-.533 0-.8-.4-.8-.533-.133-.133-.4-.667-.133-1.2 1.067-2.8 3.733-4.667 6.533-4.667s5.467 1.867 6.533 4.667c.133.533-.133 1.067-.267 1.2z"/>
    </symbol>
    <symbol id="icon-close" viewBox="0 0 32 32">
      <path d="M7.468 6.599c-0.329 0.116-0.757 0.554-0.872 0.891-0.054 0.153-0.086 0.33-0.086 0.514 0 0.181 0.030 0.355 0.086 0.517l-0.003-0.011c0.079 0.239 0.415 0.592 3.693 3.877l3.606 3.613-3.606 3.613c-3.278 3.285-3.614 3.638-3.693 3.877-0.191 0.581-0.064 1.126 0.364 1.553 0.427 0.428 0.972 0.555 1.553 0.364 0.239-0.079 0.592-0.415 3.877-3.693l3.613-3.606 3.613 3.606c3.285 3.278 3.638 3.614 3.877 3.693 0.581 0.191 1.126 0.064 1.553-0.364 0.428-0.427 0.555-0.972 0.364-1.553-0.079-0.239-0.415-0.592-3.693-3.877l-3.606-3.613 3.606-3.613c3.278-3.285 3.614-3.638 3.693-3.877 0.191-0.581 0.064-1.126-0.364-1.553-0.427-0.428-0.972-0.555-1.553-0.364-0.239 0.079-0.592 0.415-3.877 3.693l-3.613 3.606-3.613-3.606c-3.285-3.278-3.638-3.614-3.877-3.693-0.153-0.050-0.329-0.079-0.512-0.079-0.19 0-0.372 0.031-0.542 0.088l0.012-0.003z"></path>
    </symbol>
  </defs>
</svg>
